cl__1 = 0.4;
cl__2 = 1e+22;
cl__3 = 10.0;
Point(1) = {1, 0, 0, cl__1};
Point(2) = {0.998459, 0, 0.00106, cl__2};
Point(3) = {0.9938439999999999, 0, 0.00212, cl__2};
Point(4) = {0.986185, 0, 0.003182, cl__2};
Point(5) = {0.975528, 0, 0.004642, cl__2};
Point(6) = {0.96194, 0, 0.006478, cl__2};
Point(7) = {0.945503, 0, 0.008658000000000001, cl__2};
Point(8) = {0.92632, 0, 0.011149, cl__2};
Point(9) = {0.904508, 0, 0.013914, cl__2};
Point(10) = {0.880203, 0, 0.016914, cl__2};
Point(11) = {0.853553, 0, 0.020107, cl__2};
Point(12) = {0.824724, 0, 0.023452, cl__2};
Point(13) = {0.793893, 0, 0.026905, cl__2};
Point(14) = {0.761249, 0, 0.030423, cl__2};
Point(15) = {0.7269949999999999, 0, 0.033962, cl__2};
Point(16) = {0.691342, 0, 0.037476, cl__2};
Point(17) = {0.654508, 0, 0.040917, cl__2};
Point(18) = {0.616723, 0, 0.044237, cl__2};
Point(19) = {0.578217, 0, 0.047383, cl__2};
Point(20) = {0.53923, 0, 0.050302, cl__2};
Point(21) = {0.5, 0, 0.05294, cl__2};
Point(22) = {0.46077, 0, 0.055241, cl__2};
Point(23) = {0.421783, 0, 0.057148, cl__2};
Point(24) = {0.383277, 0, 0.058609, cl__2};
Point(25) = {0.345492, 0, 0.059575, cl__2};
Point(26) = {0.308658, 0, 0.06, cl__2};
Point(27) = {0.273005, 0, 0.059848, cl__2};
Point(28) = {0.238751, 0, 0.059092, cl__2};
Point(29) = {0.206107, 0, 0.057714, cl__2};
Point(30) = {0.175276, 0, 0.055709, cl__2};
Point(31) = {0.146447, 0, 0.053083, cl__2};
Point(32) = {0.119797, 0, 0.049854, cl__2};
Point(33) = {0.09549199999999999, 0, 0.046049, cl__2};
Point(34) = {0.07368, 0, 0.041705, cl__2};
Point(35) = {0.054497, 0, 0.036867, cl__2};
Point(36) = {0.03806, 0, 0.03158, cl__2};
Point(37) = {0.024472, 0, 0.025893, cl__2};
Point(38) = {0.013815, 0, 0.019854, cl__2};
Point(39) = {0.006156, 0, 0.013503, cl__2};
Point(40) = {0.001541, 0, 0.006877, cl__2};
Point(41) = {0, 0, 0, cl__1};
Point(42) = {0.001541, 0, -0.006877, cl__2};
Point(43) = {0.006156, 0, -0.013503, cl__2};
Point(44) = {0.013815, 0, -0.019854, cl__2};
Point(45) = {0.024472, 0, -0.025893, cl__2};
Point(46) = {0.03806, 0, -0.03158, cl__2};
Point(47) = {0.054497, 0, -0.036867, cl__2};
Point(48) = {0.07368, 0, -0.041705, cl__2};
Point(49) = {0.09549199999999999, 0, -0.046049, cl__2};
Point(50) = {0.119797, 0, -0.049854, cl__2};
Point(51) = {0.146447, 0, -0.053083, cl__2};
Point(52) = {0.175276, 0, -0.055709, cl__2};
Point(53) = {0.206107, 0, -0.057714, cl__2};
Point(54) = {0.238751, 0, -0.059092, cl__2};
Point(55) = {0.273005, 0, -0.059848, cl__2};
Point(56) = {0.308658, 0, -0.06, cl__2};
Point(57) = {0.345492, 0, -0.059575, cl__2};
Point(58) = {0.383277, 0, -0.058609, cl__2};
Point(59) = {0.421783, 0, -0.057148, cl__2};
Point(60) = {0.46077, 0, -0.055241, cl__2};
Point(61) = {0.5, 0, -0.05294, cl__2};
Point(62) = {0.53923, 0, -0.050302, cl__2};
Point(63) = {0.578217, 0, -0.047383, cl__2};
Point(64) = {0.616723, 0, -0.044237, cl__2};
Point(65) = {0.654508, 0, -0.040917, cl__2};
Point(66) = {0.691342, 0, -0.037476, cl__2};
Point(67) = {0.7269949999999999, 0, -0.033962, cl__2};
Point(68) = {0.761249, 0, -0.030423, cl__2};
Point(69) = {0.793893, 0, -0.026905, cl__2};
Point(70) = {0.824724, 0, -0.023452, cl__2};
Point(71) = {0.853553, 0, -0.020107, cl__2};
Point(72) = {0.880203, 0, -0.016914, cl__2};
Point(73) = {0.904508, 0, -0.013914, cl__2};
Point(74) = {0.92632, 0, -0.011149, cl__2};
Point(75) = {0.945503, 0, -0.008658000000000001, cl__2};
Point(76) = {0.96194, 0, -0.006478, cl__2};
Point(77) = {0.975528, 0, -0.004642, cl__2};
Point(78) = {0.986185, 0, -0.003182, cl__2};
Point(79) = {0.9938439999999999, 0, -0.00212, cl__2};
Point(80) = {0.998459, 0, -0.00106, cl__2};
Point(81) = {1, 3, 0, cl__1};
Point(82) = {0.998459, 3, 0.00106, cl__2};
Point(83) = {0.9938439999999999, 3, 0.00212, cl__2};
Point(84) = {0.986185, 3, 0.003182, cl__2};
Point(85) = {0.975528, 3, 0.004642, cl__2};
Point(86) = {0.96194, 3, 0.006478, cl__2};
Point(87) = {0.945503, 3, 0.008658000000000001, cl__2};
Point(88) = {0.92632, 3, 0.011149, cl__2};
Point(89) = {0.904508, 3, 0.013914, cl__2};
Point(90) = {0.880203, 3, 0.016914, cl__2};
Point(91) = {0.853553, 3, 0.020107, cl__2};
Point(92) = {0.824724, 3, 0.023452, cl__2};
Point(93) = {0.793893, 3, 0.026905, cl__2};
Point(94) = {0.761249, 3, 0.030423, cl__2};
Point(95) = {0.7269949999999999, 3, 0.033962, cl__2};
Point(96) = {0.691342, 3, 0.037476, cl__2};
Point(97) = {0.654508, 3, 0.040917, cl__2};
Point(98) = {0.616723, 3, 0.044237, cl__2};
Point(99) = {0.578217, 3, 0.047383, cl__2};
Point(100) = {0.53923, 3, 0.050302, cl__2};
Point(101) = {0.5, 3, 0.05294, cl__2};
Point(102) = {0.46077, 3, 0.055241, cl__2};
Point(103) = {0.421783, 3, 0.057148, cl__2};
Point(104) = {0.383277, 3, 0.058609, cl__2};
Point(105) = {0.345492, 3, 0.059575, cl__2};
Point(106) = {0.308658, 3, 0.06, cl__2};
Point(107) = {0.273005, 3, 0.059848, cl__2};
Point(108) = {0.238751, 3, 0.059092, cl__2};
Point(109) = {0.206107, 3, 0.057714, cl__2};
Point(110) = {0.175276, 3, 0.055709, cl__2};
Point(111) = {0.146447, 3, 0.053083, cl__2};
Point(112) = {0.119797, 3, 0.049854, cl__2};
Point(113) = {0.09549199999999999, 3, 0.046049, cl__2};
Point(114) = {0.07368, 3, 0.041705, cl__2};
Point(115) = {0.054497, 3, 0.036867, cl__2};
Point(116) = {0.03806, 3, 0.03158, cl__2};
Point(117) = {0.024472, 3, 0.025893, cl__2};
Point(118) = {0.013815, 3, 0.019854, cl__2};
Point(119) = {0.006156, 3, 0.013503, cl__2};
Point(120) = {0.001541, 3, 0.006877, cl__2};
Point(121) = {0, 3, 0, cl__1};
Point(122) = {0.001541, 3, -0.006877, cl__2};
Point(123) = {0.006156, 3, -0.013503, cl__2};
Point(124) = {0.013815, 3, -0.019854, cl__2};
Point(125) = {0.024472, 3, -0.025893, cl__2};
Point(126) = {0.03806, 3, -0.03158, cl__2};
Point(127) = {0.054497, 3, -0.036867, cl__2};
Point(128) = {0.07368, 3, -0.041705, cl__2};
Point(129) = {0.09549199999999999, 3, -0.046049, cl__2};
Point(130) = {0.119797, 3, -0.049854, cl__2};
Point(131) = {0.146447, 3, -0.053083, cl__2};
Point(132) = {0.175276, 3, -0.055709, cl__2};
Point(133) = {0.206107, 3, -0.057714, cl__2};
Point(134) = {0.238751, 3, -0.059092, cl__2};
Point(135) = {0.273005, 3, -0.059848, cl__2};
Point(136) = {0.308658, 3, -0.06, cl__2};
Point(137) = {0.345492, 3, -0.059575, cl__2};
Point(138) = {0.383277, 3, -0.058609, cl__2};
Point(139) = {0.421783, 3, -0.057148, cl__2};
Point(140) = {0.46077, 3, -0.055241, cl__2};
Point(141) = {0.5, 3, -0.05294, cl__2};
Point(142) = {0.53923, 3, -0.050302, cl__2};
Point(143) = {0.578217, 3, -0.047383, cl__2};
Point(144) = {0.616723, 3, -0.044237, cl__2};
Point(145) = {0.654508, 3, -0.040917, cl__2};
Point(146) = {0.691342, 3, -0.037476, cl__2};
Point(147) = {0.7269949999999999, 3, -0.033962, cl__2};
Point(148) = {0.761249, 3, -0.030423, cl__2};
Point(149) = {0.793893, 3, -0.026905, cl__2};
Point(150) = {0.824724, 3, -0.023452, cl__2};
Point(151) = {0.853553, 3, -0.020107, cl__2};
Point(152) = {0.880203, 3, -0.016914, cl__2};
Point(153) = {0.904508, 3, -0.013914, cl__2};
Point(154) = {0.92632, 3, -0.011149, cl__2};
Point(155) = {0.945503, 3, -0.008658000000000001, cl__2};
Point(156) = {0.96194, 3, -0.006478, cl__2};
Point(157) = {0.975528, 3, -0.004642, cl__2};
Point(158) = {0.986185, 3, -0.003182, cl__2};
Point(159) = {0.9938439999999999, 3, -0.00212, cl__2};
Point(160) = {0.998459, 3, -0.00106, cl__2};
Point(161) = {0, 0, 0, cl__2};
Point(162) = {20, 0, 0, cl__3};
Point(163) = {0, 0, 20, cl__3};
Point(164) = {-20, 0, 0, cl__3};
Point(165) = {0, 0, -20, cl__3};
Point(166) = {0, 20, 0, cl__3};
Spline(1) = {1, 2, 3, 4, 5, 6, 7, 8
, 9, 10, 11, 12, 13, 14, 15, 16
, 17, 18, 19, 20, 21, 22, 23, 24
, 25, 26, 27, 28, 29, 30, 31, 32
, 33, 34, 35, 36, 37, 38, 39, 40
, 41};
Spline(2) = {41, 42, 43, 44, 45, 46, 47, 48
, 49, 50, 51, 52, 53, 54, 55, 56
, 57, 58, 59, 60, 61, 62, 63, 64
, 65, 66, 67, 68, 69, 70, 71, 72
, 73, 74, 75, 76, 77, 78, 79, 80
, 1};
Spline(3) = {81, 82, 83, 84, 85, 86, 87, 88
, 89, 90, 91, 92, 93, 94, 95, 96
, 97, 98, 99, 100, 101, 102, 103, 104
, 105, 106, 107, 108, 109, 110, 111, 112
, 113, 114, 115, 116, 117, 118, 119, 120
, 121};
Spline(4) = {121, 122, 123, 124, 125, 126, 127, 128
, 129, 130, 131, 132, 133, 134, 135, 136
, 137, 138, 139, 140, 141, 142, 143, 144
, 145, 146, 147, 148, 149, 150, 151, 152
, 153, 154, 155, 156, 157, 158, 159, 160
, 81};
Line(5) = {1, 81};
Line(6) = {41, 121};
Circle(7) = {162, 161, 163};
Circle(8) = {163, 161, 164};
Circle(9) = {164, 161, 165};
Circle(10) = {165, 161, 162};
Circle(11) = {162, 161, 166};
Circle(12) = {163, 161, 166};
Circle(13) = {164, 161, 166};
Circle(14) = {165, 161, 166};
Curve Loop(1) = {5, 3, -6, -1};
Surface(1) = {1};
Curve Loop(2) = {6, 4, -5, -2};
Surface(2) = {2};
Curve Loop(3) = {-4, -3};
Plane Surface(3) = {3};
Curve Loop(4) = {-9, -8, -7, -10, -2, -1};
Plane Surface(4) = {4};
Curve Loop(5) = {7, 12, -11};
Surface(5) = {5};
Curve Loop(6) = {8, 13, -12};
Surface(6) = {6};
Curve Loop(7) = {9, 14, -13};
Surface(7) = {7};
Curve Loop(8) = {10, 11, -14};
Surface(8) = {8};
Surface Loop(1) = {4, 5, 6, 7, 8, 1, 2, 3};
Volume(1) = {1};
Physical Surface("wing", 1001) = {1, 2, 3, 4};
// Physical Surface("symmetry", 1006) = {4};
Physical Surface("farfield", 1004) = {5, 6, 7, 8};
Physical Volume("field") = {1};


// 2D mesh algorithm (1: MeshAdapt, 2: Automatic, 3: Initial mesh only, 5: Delaunay, 6: Frontal-Delaunay, 7: BAMG, 8: Frontal-Delaunay for Quads, 9: Packing of Parallelograms, 11: Quasi-structured Quad)
Mesh.Algorithm = 5;
Mesh 2;
// 2D Mesh recombination algorithm (0: simple, 1: blossom, 2: simple full-quad, 3: blossom full-quad)
Mesh.RecombinationAlgorithm = 2;
RecombineMesh;
Mesh.SubdivisionAlgorithm = 1;
RefineMesh;

// 3D mesh algorithm (1: Delaunay, 3: Initial mesh only, 4: Frontal, 7: MMG3D, 9: R-tree, 10: HXT)
Mesh.Algorithm3D = 1;
// Mesh subdivision algorithm (0: none, 1: all quadrangles, 2: all hexahedra, 3: barycentric)
Mesh.SubdivisionAlgorithm = 2;

// // 3d recombination level (0: hex, 1: hex+prisms, 2: hex+prism+pyramids) (experimental)
Mesh.Recombine3DLevel = 0;
// // Apply recombination3D algorithm to all volumes, ignoring per-volume spec (experimental)
Mesh.Recombine3DAll = 1;

// Mesh.ElementOrder = 2;
// Mesh.HighOrderOptimize = 1;


Mesh 3;
Mesh.SaveAll = 1;
Save "naca0012_wing_unstructured_cutoff.msh";